<svg xmlns="http://www.w3.org/2000/svg" viewBox="0 0 680 400" width="680" height="400">
<defs>
    <linearGradient id="ag1" x1="0" y1="1" x2="0" y2="0" gradientUnits="objectBoundingBox">
      <stop offset="0%" stop-color="#1A5FB4" stop-opacity="1"></stop>
      <stop offset="55%" stop-color="#5BA4F5" stop-opacity="0.9"></stop>
      <stop offset="100%" stop-color="#A8D4FF" stop-opacity="0.5"></stop>
    </linearGradient>
  </defs>
  <path d="M 190 362 A 162 162 0 0 1 190 38 L 190 42 A 158 158 0 0 0 190 358 Z" fill="url(#ag1)"></path>
  <line x1="190" y1="200" x2="101" y2="111" stroke="#1A5FB4" stroke-width="5" stroke-linecap="round"></line>
  <line x1="190" y1="200" x2="190" y2="58" stroke="#5BA4F5" stroke-width="3" stroke-linecap="round" opacity="0.85"></line>
  <circle cx="190" cy="200" r="8" fill="#FFFFFF" stroke="#5BA4F5" stroke-width="2.5"></circle>
  <circle cx="190" cy="200" r="2.5" fill="#5BA4F5"></circle>
  
  <circle cx="231" cy="46" r="4" fill="#A8D4FF" opacity="0.90"></circle>
  <circle cx="270" cy="61" r="3" fill="#A8D4FF" opacity="0.80"></circle>
  <circle cx="303" cy="87" r="5" fill="#A8D4FF" opacity="0.92"></circle>
  <circle cx="329" cy="120" r="2.5" fill="#A8D4FF" opacity="0.78"></circle>
  <circle cx="345" cy="159" r="6" fill="#A8D4FF" opacity="0.95"></circle>
  <circle cx="350" cy="200" r="3.5" fill="#A8D4FF" opacity="0.88"></circle>
  <circle cx="345" cy="241" r="5" fill="#A8D4FF" opacity="0.92"></circle>
  <circle cx="329" cy="280" r="2" fill="#A8D4FF" opacity="0.72"></circle>
  <circle cx="303" cy="313" r="4.5" fill="#A8D4FF" opacity="0.90"></circle>
  <circle cx="270" cy="339" r="3" fill="#A8D4FF" opacity="0.80"></circle>
  <circle cx="231" cy="355" r="4" fill="#A8D4FF" opacity="0.88"></circle>
  
  <circle cx="248" cy="82" r="5" fill="#7BBCFF" opacity="0.85"></circle>
  <circle cx="289" cy="97" r="2.5" fill="#7BBCFF" opacity="0.70"></circle>
  <circle cx="316" cy="128" r="4" fill="#7BBCFF" opacity="0.82"></circle>
  <circle cx="330" cy="162" r="2" fill="#7BBCFF" opacity="0.65"></circle>
  <circle cx="335" cy="200" r="6" fill="#7BBCFF" opacity="0.88"></circle>
  <circle cx="328" cy="237" r="3" fill="#7BBCFF" opacity="0.75"></circle>
  <circle cx="314" cy="272" r="5" fill="#7BBCFF" opacity="0.85"></circle>
  <circle cx="290" cy="304" r="2.5" fill="#7BBCFF" opacity="0.70"></circle>
  <circle cx="254" cy="328" r="4" fill="#7BBCFF" opacity="0.82"></circle>
  <circle cx="219" cy="340" r="2" fill="#7BBCFF" opacity="0.65"></circle>
  <circle cx="260" cy="145" r="3" fill="#7BBCFF" opacity="0.75"></circle>
  <circle cx="320" cy="200" r="2.5" fill="#7BBCFF" opacity="0.68"></circle>
  <circle cx="260" cy="257" r="3.5" fill="#7BBCFF" opacity="0.78"></circle>
  <circle cx="213" cy="68" r="2" fill="#7BBCFF" opacity="0.65"></circle>
  <circle cx="213" cy="336" r="2.5" fill="#7BBCFF" opacity="0.68"></circle>
  
  <circle cx="228" cy="116" r="4.5" fill="#5BA4F5" opacity="0.84"></circle>
  <circle cx="265" cy="107" r="2" fill="#5BA4F5" opacity="0.68"></circle>
  <circle cx="290" cy="140" r="5.5" fill="#5BA4F5" opacity="0.88"></circle>
  <circle cx="305" cy="175" r="2.5" fill="#5BA4F5" opacity="0.72"></circle>
  <circle cx="310" cy="200" r="4" fill="#5BA4F5" opacity="0.82"></circle>
  <circle cx="302" cy="228" r="2" fill="#5BA4F5" opacity="0.68"></circle>
  <circle cx="290" cy="262" r="5" fill="#5BA4F5" opacity="0.86"></circle>
  <circle cx="262" cy="295" r="2.5" fill="#5BA4F5" opacity="0.72"></circle>
  <circle cx="235" cy="318" r="4.5" fill="#5BA4F5" opacity="0.84"></circle>
  <circle cx="215" cy="296" r="3" fill="#5BA4F5" opacity="0.75"></circle>
  <circle cx="215" cy="107" r="3.5" fill="#5BA4F5" opacity="0.78"></circle>
  <circle cx="275" cy="200" r="5" fill="#5BA4F5" opacity="0.88"></circle>
  <circle cx="240" cy="170" r="2" fill="#5BA4F5" opacity="0.65"></circle>
  <circle cx="240" cy="232" r="3" fill="#5BA4F5" opacity="0.75"></circle>
  <circle cx="270" cy="170" r="3.5" fill="#5BA4F5" opacity="0.78"></circle>
  <circle cx="270" cy="232" r="2.5" fill="#5BA4F5" opacity="0.70"></circle>
  
  <circle cx="216" cy="152" r="3.5" fill="#5BA4F5" opacity="0.78"></circle>
  <circle cx="230" cy="138" r="2" fill="#5BA4F5" opacity="0.65"></circle>
  <circle cx="248" cy="165" r="4" fill="#5BA4F5" opacity="0.82"></circle>
  <circle cx="255" cy="190" r="2.5" fill="#5BA4F5" opacity="0.72"></circle>
  <circle cx="252" cy="213" r="4.5" fill="#5BA4F5" opacity="0.84"></circle>
  <circle cx="244" cy="235" r="2" fill="#5BA4F5" opacity="0.65"></circle>
  <circle cx="230" cy="258" r="3.5" fill="#5BA4F5" opacity="0.78"></circle>
  <circle cx="218" cy="246" r="2.5" fill="#5BA4F5" opacity="0.70"></circle>
  <circle cx="218" cy="170" r="3" fill="#5BA4F5" opacity="0.75"></circle>
  <circle cx="237" cy="200" r="5" fill="#5BA4F5" opacity="0.86"></circle>
  <circle cx="220" cy="200" r="2" fill="#5BA4F5" opacity="0.65"></circle>
  
  <circle cx="205" cy="180" r="2.5" fill="#5BA4F5" opacity="0.72"></circle>
  <circle cx="210" cy="196" r="3.5" fill="#5BA4F5" opacity="0.80"></circle>
  <circle cx="208" cy="215" r="2" fill="#5BA4F5" opacity="0.65"></circle>
  <circle cx="200" cy="228" r="3" fill="#5BA4F5" opacity="0.75"></circle>
  <circle cx="201" cy="173" r="2" fill="#5BA4F5" opacity="0.65"></circle>
  <circle cx="198" cy="188" r="1.5" fill="#5BA4F5" opacity="0.58"></circle>
  <circle cx="198" cy="213" r="1.5" fill="#5BA4F5" opacity="0.58"></circle>
  
  <line x1="190" y1="200" x2="205" y2="180" stroke="#5BA4F5" stroke-width="0.8" opacity="0.25"></line>
  <line x1="190" y1="200" x2="210" y2="196" stroke="#5BA4F5" stroke-width="0.8" opacity="0.25"></line>
  <line x1="190" y1="200" x2="208" y2="215" stroke="#5BA4F5" stroke-width="0.8" opacity="0.22"></line>
  <line x1="190" y1="200" x2="200" y2="228" stroke="#5BA4F5" stroke-width="0.8" opacity="0.22"></line>
  <line x1="205" y1="180" x2="210" y2="196" stroke="#5BA4F5" stroke-width="1" opacity="0.30"></line>
  <line x1="210" y1="196" x2="208" y2="215" stroke="#5BA4F5" stroke-width="1" opacity="0.30"></line>
  <line x1="208" y1="215" x2="200" y2="228" stroke="#5BA4F5" stroke-width="0.8" opacity="0.25"></line>
  <line x1="205" y1="180" x2="201" y2="173" stroke="#5BA4F5" stroke-width="0.8" opacity="0.22"></line>
  <line x1="198" y1="188" x2="205" y2="180" stroke="#5BA4F5" stroke-width="0.8" opacity="0.20"></line>
  <line x1="198" y1="213" x2="208" y2="215" stroke="#5BA4F5" stroke-width="0.8" opacity="0.20"></line>
  <line x1="205" y1="180" x2="216" y2="152" stroke="#5BA4F5" stroke-width="1" opacity="0.30"></line>
  <line x1="205" y1="180" x2="218" y2="170" stroke="#5BA4F5" stroke-width="1" opacity="0.30"></line>
  <line x1="210" y1="196" x2="237" y2="200" stroke="#5BA4F5" stroke-width="1.2" opacity="0.35"></line>
  <line x1="210" y1="196" x2="255" y2="190" stroke="#5BA4F5" stroke-width="1" opacity="0.28"></line>
  <line x1="208" y1="215" x2="252" y2="213" stroke="#5BA4F5" stroke-width="1" opacity="0.30"></line>
  <line x1="200" y1="228" x2="218" y2="246" stroke="#5BA4F5" stroke-width="1" opacity="0.28"></line>
  <line x1="200" y1="228" x2="230" y2="258" stroke="#5BA4F5" stroke-width="1" opacity="0.28"></line>
  <line x1="201" y1="173" x2="216" y2="152" stroke="#5BA4F5" stroke-width="1" opacity="0.28"></line>
  <line x1="216" y1="152" x2="230" y2="138" stroke="#5BA4F5" stroke-width="1.2" opacity="0.35"></line>
  <line x1="216" y1="152" x2="248" y2="165" stroke="#5BA4F5" stroke-width="1.2" opacity="0.35"></line>
  <line x1="218" y1="170" x2="248" y2="165" stroke="#5BA4F5" stroke-width="1" opacity="0.30"></line>
  <line x1="237" y1="200" x2="255" y2="190" stroke="#5BA4F5" stroke-width="1.2" opacity="0.36"></line>
  <line x1="237" y1="200" x2="252" y2="213" stroke="#5BA4F5" stroke-width="1.2" opacity="0.36"></line>
  <line x1="237" y1="200" x2="244" y2="235" stroke="#5BA4F5" stroke-width="1" opacity="0.30"></line>
  <line x1="255" y1="190" x2="252" y2="213" stroke="#5BA4F5" stroke-width="1" opacity="0.30"></line>
  <line x1="218" y1="246" x2="244" y2="235" stroke="#5BA4F5" stroke-width="1" opacity="0.30"></line>
  <line x1="244" y1="235" x2="230" y2="258" stroke="#5BA4F5" stroke-width="1.2" opacity="0.35"></line>
  <line x1="220" y1="200" x2="237" y2="200" stroke="#5BA4F5" stroke-width="1" opacity="0.28"></line>
  <line x1="230" y1="138" x2="228" y2="116" stroke="#5BA4F5" stroke-width="1.2" opacity="0.38"></line>
  <line x1="230" y1="138" x2="265" y2="107" stroke="#5BA4F5" stroke-width="1" opacity="0.30"></line>
  <line x1="248" y1="165" x2="240" y2="170" stroke="#5BA4F5" stroke-width="1.2" opacity="0.36"></line>
  <line x1="248" y1="165" x2="290" y2="140" stroke="#5BA4F5" stroke-width="1.5" opacity="0.42"></line>
  <line x1="255" y1="190" x2="275" y2="200" stroke="#5BA4F5" stroke-width="1.5" opacity="0.42"></line>
  <line x1="255" y1="190" x2="305" y2="175" stroke="#5BA4F5" stroke-width="1.2" opacity="0.36"></line>
  <line x1="252" y1="213" x2="275" y2="200" stroke="#5BA4F5" stroke-width="1.2" opacity="0.36"></line>
  <line x1="252" y1="213" x2="302" y2="228" stroke="#5BA4F5" stroke-width="1.2" opacity="0.36"></line>
  <line x1="244" y1="235" x2="270" y2="232" stroke="#5BA4F5" stroke-width="1" opacity="0.32"></line>
  <line x1="230" y1="258" x2="215" y2="296" stroke="#5BA4F5" stroke-width="1" opacity="0.30"></line>
  <line x1="230" y1="258" x2="262" y2="295" stroke="#5BA4F5" stroke-width="1.2" opacity="0.36"></line>
  <line x1="218" y1="170" x2="215" y2="107" stroke="#5BA4F5" stroke-width="1" opacity="0.28"></line>
  <line x1="218" y1="246" x2="215" y2="296" stroke="#5BA4F5" stroke-width="1" opacity="0.28"></line>
  <line x1="228" y1="116" x2="265" y2="107" stroke="#5BA4F5" stroke-width="1.2" opacity="0.38"></line>
  <line x1="228" y1="116" x2="215" y2="107" stroke="#5BA4F5" stroke-width="1" opacity="0.32"></line>
  <line x1="265" y1="107" x2="290" y2="140" stroke="#5BA4F5" stroke-width="1.5" opacity="0.44"></line>
  <line x1="240" y1="170" x2="270" y2="170" stroke="#5BA4F5" stroke-width="1.2" opacity="0.38"></line>
  <line x1="270" y1="170" x2="290" y2="140" stroke="#5BA4F5" stroke-width="1.2" opacity="0.38"></line>
  <line x1="275" y1="200" x2="310" y2="200" stroke="#5BA4F5" stroke-width="1.5" opacity="0.45"></line>
  <line x1="270" y1="232" x2="275" y2="200" stroke="#5BA4F5" stroke-width="1.2" opacity="0.38"></line>
  <line x1="270" y1="232" x2="290" y2="262" stroke="#5BA4F5" stroke-width="1.5" opacity="0.44"></line>
  <line x1="262" y1="295" x2="235" y2="318" stroke="#5BA4F5" stroke-width="1.2" opacity="0.36"></line>
  <line x1="215" y1="296" x2="235" y2="318" stroke="#5BA4F5" stroke-width="1" opacity="0.32"></line>
  <line x1="240" y1="232" x2="235" y2="318" stroke="#5BA4F5" stroke-width="1" opacity="0.28"></line>
  <line x1="215" y1="107" x2="213" y2="68" stroke="#5BA4F5" stroke-width="1" opacity="0.30"></line>
  <line x1="228" y1="116" x2="248" y2="82" stroke="#5BA4F5" stroke-width="1.5" opacity="0.42"></line>
  <line x1="265" y1="107" x2="248" y2="82" stroke="#5BA4F5" stroke-width="1.2" opacity="0.36"></line>
  <line x1="290" y1="140" x2="316" y2="128" stroke="#5BA4F5" stroke-width="1.5" opacity="0.44"></line>
  <line x1="290" y1="140" x2="260" y2="145" stroke="#5BA4F5" stroke-width="1" opacity="0.30"></line>
  <line x1="305" y1="175" x2="330" y2="162" stroke="#5BA4F5" stroke-width="1.5" opacity="0.42"></line>
  <line x1="310" y1="200" x2="335" y2="200" stroke="#5BA4F5" stroke-width="1.5" opacity="0.44"></line>
  <line x1="302" y1="228" x2="328" y2="237" stroke="#5BA4F5" stroke-width="1.5" opacity="0.42"></line>
  <line x1="290" y1="262" x2="314" y2="272" stroke="#5BA4F5" stroke-width="1.5" opacity="0.44"></line>
  <line x1="262" y1="295" x2="290" y2="304" stroke="#5BA4F5" stroke-width="1.5" opacity="0.42"></line>
  <line x1="235" y1="318" x2="254" y2="328" stroke="#5BA4F5" stroke-width="1.5" opacity="0.42"></line>
  <line x1="235" y1="318" x2="219" y2="340" stroke="#5BA4F5" stroke-width="1.2" opacity="0.36"></line>
  <line x1="213" y1="336" x2="219" y2="340" stroke="#5BA4F5" stroke-width="1" opacity="0.30"></line>
  
  <line x1="248" y1="82" x2="270" y2="61" stroke="#7BBCFF" stroke-width="1.5" opacity="0.45"></line>
  <line x1="260" y1="145" x2="289" y2="97" stroke="#7BBCFF" stroke-width="1.2" opacity="0.38"></line>
  <line x1="316" y1="128" x2="289" y2="97" stroke="#7BBCFF" stroke-width="1.2" opacity="0.38"></line>
  <line x1="330" y1="162" x2="335" y2="200" stroke="#7BBCFF" stroke-width="1.5" opacity="0.45"></line>
  <line x1="335" y1="200" x2="328" y2="237" stroke="#7BBCFF" stroke-width="1.5" opacity="0.45"></line>
  <line x1="328" y1="237" x2="314" y2="272" stroke="#7BBCFF" stroke-width="1.5" opacity="0.45"></line>
  <line x1="314" y1="272" x2="290" y2="304" stroke="#7BBCFF" stroke-width="1.2" opacity="0.38"></line>
  <line x1="290" y1="304" x2="254" y2="328" stroke="#7BBCFF" stroke-width="1.2" opacity="0.38"></line>
  <line x1="320" y1="200" x2="335" y2="200" stroke="#7BBCFF" stroke-width="1" opacity="0.30"></line>
  <line x1="213" y1="68" x2="231" y2="46" stroke="#7BBCFF" stroke-width="1.5" opacity="0.48"></line>
  <line x1="248" y1="82" x2="231" y2="46" stroke="#7BBCFF" stroke-width="1.2" opacity="0.38"></line>
  <line x1="289" y1="97" x2="270" y2="61" stroke="#7BBCFF" stroke-width="1.5" opacity="0.45"></line>
  <line x1="289" y1="97" x2="303" y2="87" stroke="#7BBCFF" stroke-width="1.2" opacity="0.38"></line>
  <line x1="316" y1="128" x2="329" y2="120" stroke="#7BBCFF" stroke-width="1.5" opacity="0.45"></line>
  <line x1="330" y1="162" x2="345" y2="159" stroke="#7BBCFF" stroke-width="1.5" opacity="0.45"></line>
  <line x1="335" y1="200" x2="350" y2="200" stroke="#7BBCFF" stroke-width="1.8" opacity="0.52"></line>
  <line x1="328" y1="237" x2="345" y2="241" stroke="#7BBCFF" stroke-width="1.5" opacity="0.45"></line>
  <line x1="314" y1="272" x2="329" y2="280" stroke="#7BBCFF" stroke-width="1.5" opacity="0.45"></line>
  <line x1="290" y1="304" x2="303" y2="313" stroke="#7BBCFF" stroke-width="1.2" opacity="0.38"></line>
  <line x1="254" y1="328" x2="270" y2="339" stroke="#7BBCFF" stroke-width="1.5" opacity="0.45"></line>
  <line x1="219" y1="340" x2="231" y2="355" stroke="#7BBCFF" stroke-width="1.5" opacity="0.45"></line>
  <line x1="213" y1="336" x2="231" y2="355" stroke="#7BBCFF" stroke-width="1.2" opacity="0.38"></line>
  <line x1="316" y1="128" x2="303" y2="87" stroke="#7BBCFF" stroke-width="1" opacity="0.30"></line>
  <line x1="330" y1="162" x2="329" y2="120" stroke="#7BBCFF" stroke-width="1" opacity="0.28"></line>
  <line x1="248" y1="82" x2="316" y2="128" stroke="#7BBCFF" stroke-width="0.8" opacity="0.22"></line>
  <line x1="290" y1="140" x2="345" y2="159" stroke="#7BBCFF" stroke-width="0.8" opacity="0.20"></line>
  <line x1="275" y1="200" x2="329" y2="120" stroke="#5BA4F5" stroke-width="0.8" opacity="0.18"></line>
  <line x1="305" y1="175" x2="345" y2="241" stroke="#7BBCFF" stroke-width="0.8" opacity="0.18"></line>
  <line x1="255" y1="190" x2="329" y2="280" stroke="#5BA4F5" stroke-width="0.8" opacity="0.15"></line>
  <line x1="270" y1="232" x2="350" y2="200" stroke="#7BBCFF" stroke-width="0.8" opacity="0.18"></line>
  <line x1="248" y1="165" x2="330" y2="162" stroke="#5BA4F5" stroke-width="0.8" opacity="0.18"></line>
  <line x1="265" y1="107" x2="329" y2="120" stroke="#5BA4F5" stroke-width="0.8" opacity="0.18"></line>
  <line x1="290" y1="262" x2="350" y2="200" stroke="#7BBCFF" stroke-width="0.8" opacity="0.18"></line>
  <line x1="237" y1="200" x2="303" y2="313" stroke="#5BA4F5" stroke-width="0.8" opacity="0.15"></line>
  <text x="400" y="188" font-family="system-ui,-apple-system,sans-serif" font-size="42" font-weight="700" fill="#1E293B" letter-spacing="-1.5">yippie</text>
  <text x="402" y="220" font-family="system-ui,-apple-system,sans-serif" font-size="11" font-weight="400" fill="#94A3B8" letter-spacing="4">CUSTOMER PLATFORM</text>
</svg>